<?xml version="1.0" encoding="utf-8"?>
<!-- Generator: Adobe Illustrator 24.3.0, SVG Export Plug-In . SVG Version: 6.00 Build 0)  -->
<svg version="1.1" id="Layer_1" xmlns="http://www.w3.org/2000/svg" xmlns:xlink="http://www.w3.org/1999/xlink" x="0px" y="0px"
	 viewBox="0 0 500 500" style="enable-background:new 0 0 500 500;" xml:space="preserve">
<style type="text/css">
	.st0{fill:#535A68;}
	.st1{fill:#464C57;}
	.st2{fill:#48BA7F;}
	.st3{fill:#8162AA;}
	.st4{fill:#F05023;}
	.st5{fill:#F37264;}
	.st6{fill:#47B8E9;}
	.st7{fill:none;}
</style>
<g id="Layer_2_1_">
	<g id="Layer_1_copy">
		<g id="Figma_icon">
			<g id="ads_manager">
				<path class="st0" d="M156.69,118.29h186.62c21.21,0,38.4,17.19,38.4,38.4v186.62c0,21.21-17.19,38.4-38.4,38.4H156.69
					c-21.21,0-38.4-17.19-38.4-38.4V156.69C118.29,135.48,135.48,118.29,156.69,118.29z"/>
				<path class="st1" d="M343.31,129.81c14.85,0,26.88,12.03,26.88,26.88v186.62c0,14.85-12.03,26.88-26.88,26.88H156.69
					c-14.85,0-26.88-12.03-26.88-26.88V156.69c0-14.85,12.03-26.88,26.88-26.88l0,0H343.31 M343.31,118.29H156.69
					c-21.21,0-38.4,17.19-38.4,38.4v186.62c0,21.21,17.19,38.4,38.4,38.4h186.62c21.21,0,38.4-17.19,38.4-38.4V156.69
					C381.71,135.48,364.52,118.29,343.31,118.29z"/>
				<path id="path0_fill" class="st2" d="M217.17,348.5c18.13,0,32.83-14.7,32.83-32.83v-32.83h-32.83
					c-18.13,0-32.83,14.7-32.84,32.83C184.33,333.79,199.03,348.49,217.17,348.5C217.16,348.5,217.17,348.5,217.17,348.5z"/>
				<path id="path1_fill" class="st3" d="M184.34,250c0-18.13,14.7-32.83,32.83-32.83H250v65.66h-32.83
					C199.04,282.83,184.34,268.13,184.34,250z"/>
				<path id="path1_fill-2" class="st4" d="M184.34,184.34c0-18.13,14.7-32.83,32.83-32.83H250v65.66h-32.83
					C199.04,217.17,184.34,202.47,184.34,184.34z"/>
				<path id="path2_fill" class="st5" d="M250,151.7h32.83c18.13,0,32.83,14.7,32.84,32.83c0,18.13-14.7,32.83-32.83,32.84
					c0,0,0,0-0.01,0H250V151.7z"/>
				<path id="path3_fill" class="st6" d="M315.66,250c0,18.13-14.7,32.83-32.83,32.83S250,268.13,250,250s14.7-32.83,32.83-32.83
					l0,0C300.96,217.17,315.66,231.87,315.66,250z"/>
			</g>
			<path class="st7" d="M10,10h480v480H10V10z"/>
		</g>
	</g>
</g>
</svg>
